<svg xmlns="http://www.w3.org/2000/svg" viewBox="0 0 1507.31 198.44"><defs><style>.cls-1{fill:#fff;}</style></defs><title>monstercat text logo</title><path class="cls-1" d="M7.42,234.39V164.91q0-28.76,20.36-49.12T76.89,95.44q28.76,0,49.65,20.89A68.72,68.72,0,0,1,148.87,101,67.79,67.79,0,0,1,176,95.44q28.91,0,49.19,20.36t20.28,49.12v69.48a19.83,19.83,0,0,1-39.66,0V164.91a28.51,28.51,0,0,0-8.7-21,29.71,29.71,0,0,0-50.78,21v69.48a19.8,19.8,0,0,1-33.83,14,19.09,19.09,0,0,1-5.83-14V164.91a28.51,28.51,0,0,0-8.7-21,28.89,28.89,0,0,0-21.12-8.63,28.88,28.88,0,0,0-21.12,8.63,28.5,28.5,0,0,0-8.7,21v69.48a19.1,19.1,0,0,1-5.83,14,19.09,19.09,0,0,1-14,5.83,19.09,19.09,0,0,1-14-5.83A19.09,19.09,0,0,1,7.42,234.39Z" transform="translate(-7.42 -55.78)"/><path class="cls-1" d="M257.93,174.9a79.32,79.32,0,1,1,152.35,30.8,77.38,77.38,0,0,1-42.23,42.23,78.66,78.66,0,0,1-61.61,0,77.38,77.38,0,0,1-42.23-42.23A77.85,77.85,0,0,1,257.93,174.9Zm51.24-28.08a39.83,39.83,0,0,0,0,56.16A39.66,39.66,0,0,0,376.9,174.9,39.71,39.71,0,0,0,309.17,146.83Z" transform="translate(-7.42 -55.78)"/><path class="cls-1" d="M429,234.39V174.9a79.37,79.37,0,0,1,119.13-68.8,79.09,79.09,0,0,1,29,29,77.7,77.7,0,0,1,10.67,39.81v59.49a19.83,19.83,0,0,1-39.66,0V174.9a39.73,39.73,0,1,0-79.47,0v59.49A19.83,19.83,0,0,1,429,234.39Z" transform="translate(-7.42 -55.78)"/><path class="cls-1" d="M608.27,248.39a19.83,19.83,0,0,1,14-33.83h69.48a9.83,9.83,0,0,0,10-10,9.43,9.43,0,0,0-2.88-7,9.8,9.8,0,0,0-7.11-2.8H652.09a49.87,49.87,0,0,1-49.65-49.65,49.87,49.87,0,0,1,49.65-49.65h59.49a19.9,19.9,0,0,1,19.83,19.83,19.35,19.35,0,0,1-5.83,14.08,19,19,0,0,1-14,5.9H652.09A9.8,9.8,0,0,0,645,138a9.42,9.42,0,0,0-2.87,7,9.82,9.82,0,0,0,10,10h39.66a49.74,49.74,0,0,1,49.65,49.5,49.87,49.87,0,0,1-49.65,49.65H622.27A19.09,19.09,0,0,1,608.27,248.39Z" transform="translate(-7.42 -55.78)"/><path class="cls-1" d="M751.24,194.73V75.61a19.83,19.83,0,0,1,39.66,0V95.44h29.82a19.9,19.9,0,0,1,19.83,19.83,19.35,19.35,0,0,1-5.83,14.08,19,19,0,0,1-14,5.9H790.89v59.49a19.89,19.89,0,0,0,19.83,19.83h10a19.83,19.83,0,0,1,0,39.66h-10A59.43,59.43,0,0,1,751.24,194.73Z" transform="translate(-7.42 -55.78)"/><path class="cls-1" d="M838.12,174.9a79.32,79.32,0,1,1,158.63,0,19.9,19.9,0,0,1-19.83,19.83H883.08a37.84,37.84,0,0,0,14.23,14.53,39.21,39.21,0,0,0,20.13,5.3h10a19.83,19.83,0,0,1,0,39.66h-10a77.85,77.85,0,0,1-30.8-6.28,77.38,77.38,0,0,1-42.23-42.23A77.83,77.83,0,0,1,838.12,174.9Zm45-19.83H951.8a39.32,39.32,0,0,0-14.38-14.38A39.47,39.47,0,0,0,883.08,155.08Z" transform="translate(-7.42 -55.78)"/><path class="cls-1" d="M1009.17,234.39V174.9a79.22,79.22,0,0,1,79.32-79.47,19.35,19.35,0,0,1,14.08,5.83,19,19,0,0,1,5.9,14,20.16,20.16,0,0,1-20,20,39.53,39.53,0,0,0-39.66,39.66v59.49A19.83,19.83,0,0,1,1009.17,234.39Z" transform="translate(-7.42 -55.78)"/><path class="cls-1" d="M1105.74,174.9a79.22,79.22,0,0,1,79.32-79.47,79.19,79.19,0,0,1,30.12,6,78.24,78.24,0,0,1,26,17.33,19.79,19.79,0,0,1-13.93,33.75,18.28,18.28,0,0,1-14.08-5.9,39.21,39.21,0,0,0-28.15-11.35,39.53,39.53,0,0,0-39.66,39.66,39.53,39.53,0,0,0,39.66,39.66,39.28,39.28,0,0,0,28.15-11.5,19.22,19.22,0,0,1,14.08-5.9,19.69,19.69,0,0,1,13.93,33.75,78.19,78.19,0,0,1-26,17.33,79.14,79.14,0,0,1-30.12,6,77.85,77.85,0,0,1-30.8-6.28A77.38,77.38,0,0,1,1112,205.71,77.83,77.83,0,0,1,1105.74,174.9Z" transform="translate(-7.42 -55.78)"/><path class="cls-1" d="M1252,174.9a79.32,79.32,0,1,1,158.63,0v59.49a19.9,19.9,0,0,1-19.83,19.83,19.8,19.8,0,0,1-11-3.25,18.92,18.92,0,0,1-7.27-8.55,78.1,78.1,0,0,1-72,5.52,77.38,77.38,0,0,1-42.23-42.23A77.83,77.83,0,0,1,1252,174.9Zm51.24-28.08a39.84,39.84,0,0,0,0,56.16,39.66,39.66,0,0,0,67.74-28.08A39.71,39.71,0,0,0,1303.19,146.83Z" transform="translate(-7.42 -55.78)"/><path class="cls-1" d="M1425.42,194.73V75.61a19.83,19.83,0,0,1,39.66,0V95.44h29.82a19.9,19.9,0,0,1,19.83,19.83,19.35,19.35,0,0,1-5.83,14.08,19,19,0,0,1-14,5.9h-29.82v59.49a19.89,19.89,0,0,0,19.83,19.83h10a19.83,19.83,0,0,1,0,39.66h-10A59.43,59.43,0,0,1,1425.42,194.73Z" transform="translate(-7.42 -55.78)"/></svg>